<svg width="1947" height="993" xmlns="http://www.w3.org/2000/svg" xmlns:xlink="http://www.w3.org/1999/xlink" xml:space="preserve" overflow="hidden"><defs><clipPath id="clip0"><rect x="4050445" y="6974" width="1947" height="993"/></clipPath><clipPath id="clip1"><rect x="4050445" y="6974" width="1944" height="990"/></clipPath><clipPath id="clip2"><rect x="4050445" y="6974" width="1944" height="990"/></clipPath><clipPath id="clip3"><rect x="4050668" y="7144" width="1661" height="518"/></clipPath><clipPath id="clip4"><rect x="4050668" y="7144" width="1661" height="518"/></clipPath><clipPath id="clip5"><rect x="4050445" y="6974" width="1944" height="990"/></clipPath><clipPath id="clip6"><rect x="4050445" y="6974" width="1944" height="990"/></clipPath><clipPath id="clip7"><rect x="4050445" y="6974" width="1944" height="990"/></clipPath><clipPath id="clip8"><rect x="4050445" y="6974" width="1944" height="990"/></clipPath><clipPath id="clip9"><rect x="4050445" y="6974" width="1944" height="990"/></clipPath><clipPath id="clip10"><rect x="4050445" y="6974" width="1944" height="990"/></clipPath><clipPath id="clip11"><rect x="4050445" y="6974" width="1944" height="990"/></clipPath><clipPath id="clip12"><rect x="4050445" y="6974" width="1944" height="990"/></clipPath><clipPath id="clip13"><rect x="4050445" y="6974" width="1944" height="990"/></clipPath><clipPath id="clip14"><rect x="4050445" y="6974" width="1944" height="990"/></clipPath><clipPath id="clip15"><rect x="4050445" y="6974" width="1944" height="990"/></clipPath><clipPath id="clip16"><rect x="4050445" y="6974" width="1944" height="990"/></clipPath><clipPath id="clip17"><rect x="4050445" y="6974" width="1944" height="990"/></clipPath><clipPath id="clip18"><rect x="4050445" y="6974" width="1944" height="990"/></clipPath><clipPath id="clip19"><rect x="4050445" y="6974" width="1944" height="990"/></clipPath><clipPath id="clip20"><rect x="4050445" y="6974" width="1944" height="990"/></clipPath><clipPath id="clip21"><rect x="4050445" y="6974" width="1944" height="990"/></clipPath><clipPath id="clip22"><rect x="4050445" y="6974" width="1944" height="990"/></clipPath><clipPath id="clip23"><rect x="4050445" y="6974" width="1944" height="990"/></clipPath><clipPath id="clip24"><rect x="4050445" y="6974" width="1944" height="990"/></clipPath><clipPath id="clip25"><rect x="4050445" y="6974" width="1944" height="990"/></clipPath><clipPath id="clip26"><rect x="4050445" y="6974" width="1944" height="990"/></clipPath></defs><g clip-path="url(#clip0)" transform="translate(-4050445 -6974)"><rect x="4050446" y="6975" width="1944" height="990" fill="#FFFFFF"/><g clip-path="url(#clip1)"><path d="M4050668 7601.75 4052326 7601.75M4050668 7544.75 4052326 7544.75M4050668 7487.75 4052326 7487.75M4050668 7430.74 4052326 7430.74M4050668 7373.74 4052326 7373.74M4050668 7315.74 4052326 7315.74M4050668 7258.74 4052326 7258.74M4050668 7201.74 4052326 7201.74M4050668 7144.5 4052326 7144.5" stroke="#D9D9D9" stroke-width="3.4375" stroke-linejoin="round" stroke-miterlimit="10" fill="none"/></g><g clip-path="url(#clip2)"><path d="M4050668 7659.5 4052326 7659.5" stroke="#D9D9D9" stroke-width="3.4375" stroke-linejoin="round" stroke-miterlimit="10" fill="none" fill-rule="evenodd"/></g><g clip-path="url(#clip3)"><path d="M4050677 7560 4050693 7528.25 4050710 7504.25 4050726 7475.25 4050743 7453.24 4050760 7441.24 4050776 7419.24 4050793 7400.24 4050809 7373.24 4050826 7362.24 4050843 7347.24 4050859 7339.24 4050876 7332.24 4050892 7306.24 4050909 7306.24 4050925 7295.24 4050942 7304.24 4050959 7298.24 4050975 7280.24 4050992 7273.24 4051008 7279.24 4051025 7278.24 4051041 7296.24 4051058 7271.24 4051075 7274.24 4051091 7262.24 4051108 7265.24 4051124 7258.24 4051141 7253.24 4051157 7254.24 4051174 7247.24 4051191 7259.24 4051207 7247.24 4051224 7258.24 4051240 7246.24 4051257 7244.24 4051273 7241.24 4051290 7241.24 4051307 7242.24 4051323 7242.24 4051340 7237.24 4051356 7236.24 4051373 7233.24 4051389 7243.24 4051406 7237.24 4051423 7235.24 4051439 7242.24 4051456 7229.24 4051472 7232.24 4051489 7227.24 4051505 7229.24 4051522 7227.24 4051539 7227.24 4051555 7232.24 4051572 7228.24 4051588 7224.24 4051605 7223.24 4051621 7228.24 4051638 7228.24 4051655 7223.24 4051671 7231.24 4051688 7226.24 4051704 7228.24 4051721 7225.24 4051737 7222.24 4051754 7220.24 4051771 7217.24 4051787 7220.24 4051804 7226.24 4051820 7217.24 4051837 7218.24 4051854 7220.24 4051870 7219.24 4051887 7221.24 4051903 7220.24 4051920 7216.24 4051936 7214.24 4051953 7221.24 4051970 7216.24 4051986 7216.24 4052003 7219.24 4052019 7223.24 4052036 7216.24 4052052 7216.24 4052069 7216.24 4052086 7213 4052102 7215.24 4052119 7214.24 4052135 7216.24 4052152 7215.24 4052168 7216.24 4052185 7215.24 4052202 7216.24 4052218 7215.24 4052235 7219.24 4052251 7213.24 4052268 7215.24 4052284 7216.24 4052301 7213.24 4052318 7215.24" stroke="#4472C4" stroke-width="10.3125" stroke-linecap="round" stroke-linejoin="round" stroke-miterlimit="10" fill="none"/></g><g clip-path="url(#clip4)"><path d="M4050677 7572 4050693 7491.25 4050710 7499.25 4050726 7449.24 4050743 7448.24 4050760 7412.24 4050776 7416.24 4050793 7419.24 4050809 7423.24 4050826 7391.24 4050843 7386.24 4050859 7380.24 4050876 7420.24 4050892 7440.24 4050909 7384.24 4050925 7425.24 4050942 7428.24 4050959 7455.24 4050975 7399.24 4050992 7404.24 4051008 7395.24 4051025 7418.24 4051041 7417.24 4051058 7391.24 4051075 7392.24 4051091 7380.24 4051108 7382.24 4051124 7380.24 4051141 7385.24 4051157 7377.24 4051174 7408.24 4051191 7380.24 4051207 7390.24 4051224 7384.24 4051240 7370.24 4051257 7414.24 4051273 7374.24 4051290 7375.24 4051307 7388.24 4051323 7372.24 4051340 7386.24 4051356 7373.24 4051373 7380.24 4051389 7385.24 4051406 7371.24 4051423 7382.24 4051439 7370.24 4051456 7386.24 4051472 7376.24 4051489 7409.24 4051505 7370.24 4051522 7371.24 4051539 7365.24 4051555 7378.24 4051572 7368.24 4051588 7375.24 4051605 7370.24 4051621 7377.24 4051638 7364.24 4051655 7361.24 4051671 7369.24 4051688 7395.24 4051704 7366.24 4051721 7396.24 4051737 7381.24 4051754 7392.24 4051771 7373.24 4051787 7369.24 4051804 7377.24 4051820 7364.24 4051837 7363.24 4051854 7367.24 4051870 7376.24 4051887 7371.24 4051903 7372.24 4051920 7359.24 4051936 7357.24 4051953 7364.24 4051970 7361.24 4051986 7363.24 4052003 7360.24 4052019 7361.24 4052036 7369.24 4052052 7366.24 4052069 7361.24 4052086 7365.24 4052102 7357 4052119 7364.24 4052135 7368.24 4052152 7363.24 4052168 7364.24 4052185 7364.24 4052202 7370.24 4052218 7359.24 4052235 7364.24 4052251 7357.24 4052268 7358.24 4052284 7365.24 4052301 7360.24 4052318 7368.24" stroke="#ED7D31" stroke-width="10.3125" stroke-linecap="round" stroke-linejoin="round" stroke-miterlimit="10" fill="none"/></g><g clip-path="url(#clip5)"><text fill="#595959" font-family="Calibri,Calibri_MSFontService,sans-serif" font-weight="400" font-size="41" transform="matrix(1 0 0 1 4050609 7671)">0</text></g><g clip-path="url(#clip6)"><text fill="#595959" font-family="Calibri,Calibri_MSFontService,sans-serif" font-weight="400" font-size="41" transform="matrix(1 0 0 1 4050578 7614)">0.1</text></g><g clip-path="url(#clip7)"><text fill="#595959" font-family="Calibri,Calibri_MSFontService,sans-serif" font-weight="400" font-size="41" transform="matrix(1 0 0 1 4050578 7556)">0.2</text></g><g clip-path="url(#clip8)"><text fill="#595959" font-family="Calibri,Calibri_MSFontService,sans-serif" font-weight="400" font-size="41" transform="matrix(1 0 0 1 4050578 7499)">0.3</text></g><g clip-path="url(#clip9)"><text fill="#595959" font-family="Calibri,Calibri_MSFontService,sans-serif" font-weight="400" font-size="41" transform="matrix(1 0 0 1 4050578 7442)">0.4</text></g><g clip-path="url(#clip10)"><text fill="#595959" font-family="Calibri,Calibri_MSFontService,sans-serif" font-weight="400" font-size="41" transform="matrix(1 0 0 1 4050578 7385)">0.5</text></g><g clip-path="url(#clip11)"><text fill="#595959" font-family="Calibri,Calibri_MSFontService,sans-serif" font-weight="400" font-size="41" transform="matrix(1 0 0 1 4050578 7328)">0.6</text></g><g clip-path="url(#clip12)"><text fill="#595959" font-family="Calibri,Calibri_MSFontService,sans-serif" font-weight="400" font-size="41" transform="matrix(1 0 0 1 4050578 7271)">0.7</text></g><g clip-path="url(#clip13)"><text fill="#595959" font-family="Calibri,Calibri_MSFontService,sans-serif" font-weight="400" font-size="41" transform="matrix(1 0 0 1 4050578 7213)">0.8</text></g><g clip-path="url(#clip14)"><text fill="#595959" font-family="Calibri,Calibri_MSFontService,sans-serif" font-weight="400" font-size="41" transform="matrix(1 0 0 1 4050578 7156)">0.9</text></g><g clip-path="url(#clip15)"><text fill="#595959" font-family="Arial,Arial_MSFontService,sans-serif" font-weight="400" font-size="41" transform="translate(4050665 7724)">0</text></g><g clip-path="url(#clip16)"><text fill="#595959" font-family="Arial,Arial_MSFontService,sans-serif" font-weight="400" font-size="41" transform="translate(4050985 7724)">20</text></g><g clip-path="url(#clip17)"><text fill="#595959" font-family="Arial,Arial_MSFontService,sans-serif" font-weight="400" font-size="41" transform="translate(4051316 7724)">40</text></g><g clip-path="url(#clip18)"><text fill="#595959" font-family="Arial,Arial_MSFontService,sans-serif" font-weight="400" font-size="41" transform="translate(4051648 7724)">60</text></g><g clip-path="url(#clip19)"><text fill="#595959" font-family="Arial,Arial_MSFontService,sans-serif" font-weight="400" font-size="41" transform="translate(4051979 7724)">80</text></g><g clip-path="url(#clip20)"><text fill="#595959" font-family="Calibri,Calibri_MSFontService,sans-serif" font-weight="400" font-size="46" transform="matrix(6.12323e-17 -1 1 6.12323e-17 4050547 7448)">SSIM</text></g><g clip-path="url(#clip21)"><text fill="#595959" font-family="Calibri,Calibri_MSFontService,sans-serif" font-weight="400" font-size="46" transform="matrix(1 0 0 1 4051431 7791)">epochs</text></g><g clip-path="url(#clip22)"><text fill="#595959" font-family="Calibri,Calibri_MSFontService,sans-serif" font-weight="400" font-size="64" transform="matrix(1 0 0 1 4051080 7070)">SSIM metric | RAW vs JPG</text></g><g clip-path="url(#clip23)"><path d="M4051238 7899 4051326 7899" stroke="#4472C4" stroke-width="10.3125" stroke-linecap="round" stroke-linejoin="round" stroke-miterlimit="10" fill="none" fill-rule="evenodd"/></g><g clip-path="url(#clip24)"><text fill="#595959" font-family="Calibri,Calibri_MSFontService,sans-serif" font-weight="400" font-size="41" transform="matrix(1 0 0 1 4051336 7910)">RAW</text></g><g clip-path="url(#clip25)"><path d="M4051456 7899 4051544 7899" stroke="#ED7D31" stroke-width="10.3125" stroke-linecap="round" stroke-linejoin="round" stroke-miterlimit="10" fill="none" fill-rule="evenodd"/></g><g clip-path="url(#clip26)"><text fill="#595959" font-family="Calibri,Calibri_MSFontService,sans-serif" font-weight="400" font-size="41" transform="matrix(1 0 0 1 4051552 7910)">JPG</text></g><rect x="4050446" y="6975.5" width="1944" height="990" stroke="#D9D9D9" stroke-width="3.4375" stroke-linejoin="round" stroke-miterlimit="10" fill="none"/></g></svg>